<svg xmlns="http://www.w3.org/2000/svg" fill="#fff" xmlns:xlink="http://www.w3.org/1999/xlink" version="1.1" x="0px" y="0px" viewBox="0 0 100 125" style="enable-background:new 0 0 100 100;" xml:space="preserve"><g><path d="M28.6782608,38.018177c0.8189106-0.7266006,1.6378212-1.4637146,2.4464493-2.1905441   c0.9418411-0.8495255,1.4945602-2.3749313,1.4945602-3.6236343c0-1.2589817-0.5527191-2.75354-1.4945602-3.6236324   c-0.972456-0.8904285-2.2517757-1.5557938-3.6234055-1.4943295c-1.4024754,0.0612354-2.5696068,0.5630016-3.6236343,1.4943295   c-2.241951,2.0063763-4.4836731,4.0127544-6.7253952,6.0191326c-3.5724525,3.193615-7.1348515,6.3977394-10.707304,9.5913544   c-0.8189106,0.7268295-1.6378217,1.4639397-2.4464502,2.1905403C3.097811,47.1900215,2.442728,48.797226,2.5039637,50.0050278   c0.0614638,1.3103943,0.4914834,2.7126427,1.4945576,3.6236343c2.241951,2.0063744,4.4834447,4.0127525,6.7253957,6.0189018   c3.5724525,3.193615,7.1346226,6.3977394,10.707304,9.5915794c0.8189106,0.7266006,1.6378212,1.4637146,2.4464493,2.1905441   c1.0133572,0.9109955,2.2314415,1.4945602,3.6236343,1.4945602c1.2589836,0,2.7535419-0.552948,3.6234055-1.4945602   c0.8906593-0.9724579,1.5560226-2.2520065,1.4945602-3.6236343c-0.0511818-1.3103943-0.4809761-2.7126389-1.4945602-3.6135788   c-2.2417221-2.0063782-4.4834442-4.0127563-6.7251663-6.0189056c-3.0402985-2.7176666-6.0741978-5.4421921-9.1119814-8.1621437   c0.8945417-0.8006325,1.7890825-1.601265,2.6836233-2.4016647C21.5436382,44.4161453,25.1058083,41.2120171,28.6782608,38.018177z"/><path d="M89.2760544,40.3608894c-3.5724487-3.193615-7.1346207-6.3977394-10.7073059-9.5913544   c-0.8189087-0.7268276-1.6378174-1.4637108-2.4464493-2.1905403c-1.0133514-0.9109917-2.2314377-1.4945564-3.6234055-1.4945564   c-1.2592087,0-2.7537689,0.5527191-3.6236343,1.4945564c-0.8906555,0.9724579-1.5560226,2.2520046-1.4945526,3.6236343   c0.051178,1.3101654,0.4809723,2.7126427,1.4945526,3.6133537c2.2417221,2.0063744,4.4834442,4.0129814,6.7253952,6.0191307   c3.0400696,2.7176666,6.0739746,5.4421921,9.1117554,8.1621437c-0.8945389,0.8006325-1.7890854,1.601265-2.6836243,2.4016685   c-3.5724487,3.1936111-7.1346207,6.3977394-10.707077,9.5913544c-0.8189087,0.7268295-1.6378174,1.4639397-2.4464493,2.1905365   c-0.9418335,0.849762-1.4945526,2.374939-1.4945526,3.6236343c0,1.2592163,0.5527191,2.7537766,1.4945526,3.6236343   c0.9724579,0.8906631,2.2517776,1.5560226,3.6236343,1.4945602c1.4022522-0.0614624,2.5693817-0.5630035,3.6234055-1.4945602   c2.241951-2.0063705,4.4836731-4.0127487,6.7253952-6.018898c3.5726852-3.193615,7.1348572-6.3977432,10.7073059-9.5913582   c0.8189087-0.7268257,1.637825-1.4639397,2.4464493-2.1907692c0.9007111-0.8086281,1.5560226-2.4156036,1.4945602-3.6234055   c-0.0614624-1.3103943-0.4914856-2.7126389-1.4945602-3.6236343   C93.7594986,44.3736458,91.5180054,42.3672676,89.2760544,40.3608894z"/><path d="M39.4669075,82.7002182c1.3101654,0.296814,2.7841606,0.2353516,3.9410057-0.5118179   c1.15662-0.7371063,1.9243507-1.740181,2.3543701-3.0608597c0.6141815-1.8425522,1.2180824-3.6850967,1.8322678-5.5379333   c1.4637108-4.4322586,2.9276505-8.8544693,4.3913612-13.2867317c1.7607498-5.3432579,3.5212708-10.6764565,5.292305-16.0199432   c1.5251732-4.6166534,3.0503502-9.2330818,4.5755234-13.8497353c0.7471657-2.2520046,1.525177-4.4937267,2.2314415-6.7457314   c0.0102844-0.0308456,0.0205612-0.0614643,0.0308456-0.0920811c0.3991776-1.2183132,0.1227036-2.8561344-0.5118179-3.9412365   c-0.6244659-1.064539-1.8425484-2.0778942-3.0608635-2.3543682c-1.3101654-0.2968102-2.7841568-0.2353458-3.9410057,0.5118179   c-1.15662,0.7473946-1.9142952,1.7504673-2.3543701,3.0608616c-0.6141815,1.8425503-1.2180824,3.6850986-1.8322678,5.5379295   c-1.4639397,4.4324932-2.9276505,8.8544731-4.3913612,13.2867355c-1.7607498,5.343483-3.5212708,10.6764565-5.2923012,16.0199432   c-1.525177,4.6166534-3.050354,9.2333107-4.5755272,13.8497353c-0.7471657,2.2520065-1.525177,4.4939575-2.2314415,6.7457275   c-0.0102806,0.0308533-0.020565,0.06147-0.0308456,0.0923157c-0.3991737,1.2180786-0.1226997,2.8559036,0.5118179,3.9410095   C37.0305099,81.4103928,38.2485962,82.4239731,39.4669075,82.7002182z"/></g></svg>